<?xml version="1.0" standalone="no"?>
<!DOCTYPE svg PUBLIC "-//W3C//DTD SVG 20010904//EN"
 "http://www.w3.org/TR/2001/REC-SVG-20010904/DTD/svg10.dtd">
<svg version="1.0" xmlns="http://www.w3.org/2000/svg"
 width="512.000000pt" height="512.000000pt" viewBox="0 0 512.000000 512.000000"
 preserveAspectRatio="xMidYMid meet">
<metadata>
Created by potrace 1.14, written by Peter Selinger 2001-2017
</metadata>
<g transform="translate(0.000000,512.000000) scale(0.100000,-0.100000)"
fill="#000000" stroke="none">
<path d="M3235 4854 c-329 -53 -601 -251 -745 -541 -31 -64 -65 -157 -76 -208
-20 -97 -25 -275 -11 -374 9 -66 57 -212 91 -279 72 -142 200 -286 331 -373
388 -257 897 -206 1225 123 131 133 241 335 265 488 3 19 9 58 13 85 13 81 5
236 -17 326 -87 368 -357 638 -731 734 -64 17 -284 28 -345 19z m336 -142
c381 -101 641 -435 641 -822 0 -569 -545 -978 -1087 -818 -99 29 -204 82 -283
143 -55 41 -149 145 -191 209 -95 146 -142 312 -136 486 4 112 9 143 37 230
84 263 285 467 543 554 42 14 97 28 123 32 26 3 48 7 50 9 12 11 238 -6 303
-23z"/>
<path d="M3213 4565 c-368 -84 -596 -438 -519 -804 51 -245 232 -437 481 -512
138 -42 349 -23 478 43 267 135 415 421 373 717 -34 238 -226 462 -460 537
-101 32 -258 41 -353 19z m169 -244 c4 -1 8 -11 10 -23 2 -15 13 -24 38 -31
19 -5 49 -19 66 -32 32 -25 77 -105 66 -117 -4 -4 -30 -10 -59 -14 -50 -6 -52
-5 -67 24 -8 16 -22 32 -31 35 -13 6 -15 -7 -15 -84 0 -77 3 -90 18 -95 57
-18 118 -53 137 -79 89 -117 20 -294 -127 -330 -25 -7 -28 -11 -28 -52 0 -44
0 -44 -32 -41 -33 3 -34 4 -37 63 -1 15 -14 25 -50 38 -26 9 -61 29 -76 44
-43 43 -82 141 -57 144 4 0 16 2 27 4 25 5 56 8 71 6 6 -1 17 -14 24 -30 6
-16 22 -39 36 -52 l24 -22 1 24 c2 62 -1 171 -5 178 -3 5 -18 11 -33 14 -39 8
-97 59 -118 104 -24 49 -22 133 3 181 22 43 68 78 123 92 29 8 37 15 32 26 -7
18 12 33 36 29 9 -2 19 -4 23 -4z"/>
<path d="M3283 4143 c-28 -43 -27 -69 6 -105 33 -36 32 -37 32 47 0 76 -1 85
-11 85 -5 0 -17 -12 -27 -27z"/>
<path d="M3390 3766 l0 -97 29 15 c62 33 65 123 3 159 l-32 19 0 -96z"/>
<path d="M2081 2918 c-145 -37 -504 -201 -831 -378 -101 -55 -119 -84 -69
-110 14 -8 42 2 131 50 376 202 668 334 808 365 112 24 266 5 545 -65 133 -34
266 -74 442 -134 115 -39 134 -42 151 -30 13 9 18 21 15 37 -4 20 -22 29 -129
66 -236 80 -548 166 -669 186 -22 4 -47 8 -55 10 -110 23 -256 25 -339 3z"/>
<path d="M2118 2525 c-2 -2 -28 -6 -58 -9 -115 -12 -274 -70 -510 -187 -141
-70 -323 -169 -336 -182 -3 -3 19 -39 49 -79 105 -142 288 -443 382 -627 44
-87 46 -89 73 -81 123 39 238 70 292 78 93 14 295 13 363 -3 31 -7 58 -13 60
-13 12 -1 78 -19 152 -42 257 -81 355 -101 509 -105 180 -4 298 27 561 148
586 270 1115 659 1115 822 0 86 -84 136 -226 136 -154 0 -440 -89 -710 -221
-145 -71 -294 -167 -312 -201 -21 -39 -82 -75 -160 -94 -59 -14 -97 -17 -205
-12 -72 4 -143 9 -157 11 -14 2 -43 7 -64 10 -33 5 -99 19 -201 42 -103 22
-210 55 -222 67 -17 17 -10 52 11 60 7 3 74 -10 147 -29 231 -59 358 -78 519
-78 92 -1 158 4 180 11 133 48 139 191 13 303 -95 84 -295 162 -543 213 -112
23 -171 32 -360 53 -55 6 -357 13 -362 9z"/>
<path d="M970 2173 c-107 -41 -321 -157 -365 -197 -35 -32 -34 -75 3 -221 45
-176 51 -242 57 -600 5 -287 10 -359 32 -455 20 -90 22 -93 58 -74 61 33 264
134 268 134 3 0 58 25 123 56 363 171 492 242 514 284 31 59 -23 202 -182 479
-275 479 -406 633 -508 594z m326 -792 c62 -43 79 -138 36 -198 -24 -33 -91
-63 -129 -58 -62 8 -102 39 -123 97 -46 128 101 237 216 159z"/>
<path d="M1178 1317 c-27 -21 -32 -60 -11 -84 26 -31 56 -37 82 -16 62 52 -7
148 -71 100z"/>
<path d="M944 555 c-19 -26 -18 -42 4 -54 25 -13 2409 -13 2434 0 22 12 23 42
3 59 -12 10 -271 13 -1221 14 -1190 1 -1207 1 -1220 -19z"/>
<path d="M368 339 c-10 -6 -18 -21 -18 -34 0 -18 7 -26 27 -31 15 -4 238 -7
495 -7 354 0 471 3 482 12 17 14 13 50 -6 62 -19 12 -959 10 -980 -2z"/>
<path d="M2146 325 c-15 -16 -11 -44 8 -57 6 -4 461 -8 1010 -8 901 0 1001 2
1017 16 18 16 15 42 -5 56 -6 4 -462 8 -1013 8 -885 0 -1003 -2 -1017 -15z"/>
<path d="M4323 321 c-9 -15 -8 -23 3 -40 14 -20 24 -21 154 -21 111 0 142 3
154 15 15 16 11 44 -8 57 -6 4 -74 8 -151 8 -126 0 -141 -2 -152 -19z"/>
</g>
</svg>
